<svg width="41.000000" height="41.000000" viewBox="0 0 41 41" fill="none" xmlns="http://www.w3.org/2000/svg" xmlns:xlink="http://www.w3.org/1999/xlink">
	<desc>
			Created with Pixso.
	</desc>
	<defs>
		<clipPath id="clip143_8">
			<rect id="Frame 13" rx="7.500000" width="15.000000" height="27.000000" transform="translate(9.000000 9.000000)" fill="white" fill-opacity="0"/>
		</clipPath>
		<clipPath id="clip143_7">
			<rect id="Frame 12" rx="12.500000" width="32.000000" height="32.000000" transform="translate(4.500000 4.500000)" fill="white" fill-opacity="0"/>
		</clipPath>
		<clipPath id="clip237_71">
			<rect id="фрейм 8" width="41.000000" height="41.000000" fill="white" fill-opacity="0"/>
		</clipPath>
	</defs>
	<rect id="фрейм 8" width="41.000000" height="41.000000" fill="#FFFFFF" fill-opacity="0"/>
	<g clip-path="url(#clip237_71)">
		<path id="Frame 12" d="M17 3L38 3L38 38L3 38L3 17C3 9.26 9.26 3 17 3Z" fill="#FFFFFF" fill-opacity="0" fill-rule="evenodd"/>
		<path id="Frame 12" d="M38 3L17 3C9.26 3 3 9.26 3 17L3 38L6 38L6 17C6 10.92 10.92 6 17 6L38 6L38 3Z" fill="#000000" fill-opacity="1.000000" fill-rule="evenodd"/>
		<g clip-path="url(#clip143_7)">
			<rect id="Frame 13" rx="7.500000" width="15.000000" height="27.000000" transform="translate(9.000000 9.000000)" fill="#FFFFFF" fill-opacity="0"/>
			<g clip-path="url(#clip143_8)">
				<circle id="Oval 4" cx="16.500000" cy="16.500000" r="5.500000" fill="#424242" fill-opacity="1.000000"/>
				<circle id="Oval 4" cx="16.500000" cy="16.500000" r="4.500000" stroke="#000000" stroke-opacity="1.000000" stroke-width="2.000000"/>
				<circle id="Oval 4" cx="16.500000" cy="28.500000" r="5.500000" fill="#424242" fill-opacity="1.000000"/>
				<circle id="Oval 4" cx="16.500000" cy="28.500000" r="4.500000" stroke="#000000" stroke-opacity="1.000000" stroke-width="2.000000"/>
				<circle id="Oval 5" cx="21.000000" cy="23.000000" r="1.000000" fill="#000000" fill-opacity="1.000000"/>
			</g>
			<rect id="Frame 13" rx="7.500000" width="15.000000" height="27.000000" transform="translate(9.000000 9.000000)" stroke="#000000" stroke-opacity="1.000000" stroke-width="2.000000"/>
			<circle id="Oval 6" cx="29.500000" cy="22.500000" r="2.500000" fill="#C4C4C4" fill-opacity="0"/>
			<circle id="Oval 6" cx="29.500000" cy="22.500000" r="2.000000" stroke="#000000" stroke-opacity="1.000000" stroke-width="1.000000"/>
		</g>
		<path id="Frame 12" d="M17 3L38 3L38 38L3 38L3 17C3 9.26 9.26 3 17 3Z" fill="#FFFFFF" fill-opacity="0" fill-rule="evenodd"/>
		<path id="Frame 12" d="M38 3L17 3C9.26 3 3 9.26 3 17L3 38L6 38L6 17C6 10.92 10.92 6 17 6L38 6L38 3Z" fill="#000000" fill-opacity="1.000000" fill-rule="evenodd"/>
	</g>
</svg>
