<svg width="15.000000" height="15.000000" viewBox="0 0 15 15" fill="none" xmlns="http://www.w3.org/2000/svg" xmlns:xlink="http://www.w3.org/1999/xlink">
	<defs/>
	<path id="path" d="M7.5 15C11.64 15 15 11.64 15 7.5C15 3.35 11.64 0 7.5 0C3.35 0 0 3.35 0 7.5C0 11.64 3.35 15 7.5 15ZM8.33 2.91C8.33 2.45 7.96 2.08 7.5 2.08C7.03 2.08 6.66 2.45 6.66 2.91L6.66 7.29C6.66 7.86 7.13 8.33 7.7 8.33L10.41 8.33C10.87 8.33 11.25 7.96 11.25 7.5C11.25 7.03 10.87 6.66 10.41 6.66L8.33 6.66L8.33 2.91Z" fill="#222222" fill-opacity="1.000000" fill-rule="evenodd"/>
</svg>
