<svg width="31.000000" height="31.000000" viewBox="0 0 31 31" fill="none" xmlns="http://www.w3.org/2000/svg" xmlns:xlink="http://www.w3.org/1999/xlink">
	<desc>
			Created with Pixso.
	</desc>
	<defs>
		<clipPath id="clip381_26">
			<rect id="exit-svgrepo-com" width="31.000000" height="31.000000" fill="white" fill-opacity="0"/>
		</clipPath>
	</defs>
	<g clip-path="url(#clip381_26)">
		<path id="MingCute" d="M31 0L31 31L0 31L0 0L31 0ZM16.26 30.04L16.13 30.09C16.12 30.09 16 30.04 15.99 30.05L15.96 30.61L16.12 30.75L16.28 30.65L16.26 30.04ZM16.6 29.89L16.26 30.04L16.28 30.65L16.63 30.74L16.6 29.89ZM15.68 29.89L15.59 30.71L15.96 30.61L15.99 30.05L15.68 29.89Z" fill="#000000" fill-opacity="0" fill-rule="nonzero"/>
		<path id="MingCute" d="M31 31L0 31L0 0L31 0L31 31ZM16.13 30.09C16.12 30.09 16 30.04 15.99 30.05L15.96 30.61L16.12 30.75L16.28 30.65L16.63 30.74L16.6 29.89L16.26 30.04L16.13 30.09ZM16.28 30.65L16.26 30.04M15.99 30.05L15.68 29.89L15.59 30.71L15.96 30.61" stroke="#000000" stroke-opacity="0" stroke-width="4.833333"/>
		<path id="形状" d="M15.5 3.87C16.21 3.87 16.79 4.45 16.79 5.16C16.79 5.82 16.29 6.37 15.65 6.44L15.5 6.45L9.04 6.45C8.37 6.45 7.83 6.95 7.75 7.59L7.75 7.75L7.75 23.25C7.75 23.91 8.24 24.45 8.89 24.53L9.04 24.54L14.85 24.54C15.56 24.54 16.14 25.11 16.14 25.83C16.14 26.49 15.64 27.04 15 27.11L14.85 27.12L9.04 27.12C6.97 27.12 5.29 25.51 5.17 23.47L5.16 23.25L5.16 7.75C5.16 5.68 6.77 3.99 8.81 3.88L9.04 3.87L15.5 3.87ZM22.87 10.93L26.52 14.58C27.02 15.09 27.02 15.9 26.52 16.41L22.87 20.06C22.36 20.57 21.54 20.57 21.04 20.06C20.54 19.56 20.54 18.74 21.04 18.24L22.49 16.79L15.5 16.79C14.78 16.79 14.2 16.21 14.2 15.5C14.2 14.78 14.78 14.2 15.5 14.2L22.49 14.2L21.04 12.75C20.54 12.25 20.54 11.43 21.04 10.93C21.54 10.42 22.36 10.42 22.87 10.93Z" fill="#FFFFFF" fill-opacity="1.000000" fill-rule="nonzero"/>
		<path id="形状" d="M16.79 5.16C16.79 5.82 16.29 6.37 15.65 6.44L15.5 6.45L9.04 6.45C8.37 6.45 7.83 6.95 7.75 7.59L7.75 7.75L7.75 23.25C7.75 23.91 8.24 24.45 8.89 24.53L9.04 24.54L14.85 24.54C15.56 24.54 16.14 25.11 16.14 25.83C16.14 26.49 15.64 27.04 15 27.11L14.85 27.12L9.04 27.12C6.97 27.12 5.29 25.51 5.17 23.47L5.16 23.25L5.16 7.75C5.16 5.68 6.77 3.99 8.81 3.88L9.04 3.87L15.5 3.87C16.21 3.87 16.79 4.45 16.79 5.16ZM26.52 14.58C27.02 15.09 27.02 15.9 26.52 16.41L22.87 20.06C22.36 20.57 21.54 20.57 21.04 20.06C20.54 19.56 20.54 18.74 21.04 18.24L22.49 16.79L15.5 16.79C14.78 16.79 14.2 16.21 14.2 15.5C14.2 14.78 14.78 14.2 15.5 14.2L22.49 14.2L21.04 12.75C20.54 12.25 20.54 11.43 21.04 10.93C21.54 10.42 22.36 10.42 22.87 10.93L26.52 14.58Z" stroke="#000000" stroke-opacity="0" stroke-width="4.833333"/>
	</g>
</svg>
