<svg width="29.708496" height="26.479164" viewBox="0 0 29.7085 26.4792" fill="none" xmlns="http://www.w3.org/2000/svg" xmlns:xlink="http://www.w3.org/1999/xlink">
	<defs/>
	<path id="path" d="M13.96 0.35C14.46 -0.12 15.24 -0.12 15.74 0.35L26.07 10.19L29.3 13.27C29.82 13.76 29.84 14.58 29.35 15.09C28.85 15.61 28.04 15.63 27.52 15.14L26.47 14.14L26.47 23.89C26.47 25.32 25.32 26.47 23.89 26.47L17.43 26.47L12.27 26.47L5.81 26.47C4.38 26.47 3.22 25.32 3.22 23.89L3.22 14.14L2.18 15.14C1.66 15.63 0.84 15.61 0.35 15.09C-0.14 14.58 -0.12 13.76 0.4 13.27L3.62 10.19L13.96 0.35ZM5.81 11.68L5.81 23.89L10.97 23.89L10.97 17.43C10.97 15.29 12.71 13.56 14.85 13.56C16.99 13.56 18.72 15.29 18.72 17.43L18.72 23.89L23.89 23.89L23.89 11.68L14.85 3.07L5.81 11.68ZM16.14 23.89L16.14 17.43C16.14 16.72 15.56 16.14 14.85 16.14C14.14 16.14 13.56 16.72 13.56 17.43L13.56 23.89L16.14 23.89Z" fill="#000000" fill-opacity="1.000000" fill-rule="evenodd"/>
</svg>
