<svg width="15.000000" height="15.000004" viewBox="0 0 15 15" fill="none" xmlns="http://www.w3.org/2000/svg" xmlns:xlink="http://www.w3.org/1999/xlink">
	<desc>
			Created with Pixso.
	</desc>
	<defs/>
	<path id="path" d="M5.66 1.23L6.26 2.32C6.81 3.3 6.59 4.59 5.73 5.46C5.73 5.46 4.68 6.51 6.58 8.41C8.48 10.31 9.53 9.26 9.53 9.26C10.4 8.4 11.69 8.18 12.67 8.73L13.76 9.33C15.25 10.16 15.42 12.25 14.12 13.55C13.33 14.34 12.37 14.95 11.31 14.99C9.52 15.06 6.48 14.6 3.43 11.56C0.39 8.51 -0.07 5.47 0 3.68C0.04 2.62 0.65 1.66 1.44 0.87C2.74 -0.43 4.83 -0.26 5.66 1.23Z" fill="#000000" fill-opacity="1.000000" fill-rule="nonzero"/>
</svg>
