<svg width="42.000000" height="40.000000" viewBox="0 0 42 40" fill="none" xmlns="http://www.w3.org/2000/svg" xmlns:xlink="http://www.w3.org/1999/xlink">
	<desc>
			Created with Pixso.
	</desc>
	<defs>
		<clipPath id="clip143_27">
			<rect id="Frame 11" rx="5.500000" width="33.000000" height="33.000000" transform="translate(4.500000 3.500000)" fill="white" fill-opacity="0"/>
		</clipPath>
	</defs>
	<rect id="Frame 19" width="42.000000" height="40.000000" fill="#FFFFFF" fill-opacity="0"/>
	<rect id="Frame 11" rx="5.500000" width="33.000000" height="33.000000" transform="translate(4.500000 3.500000)" fill="#FFFFFF" fill-opacity="0"/>
	<g clip-path="url(#clip143_27)">
		<path id="A18" d="M31.71 20.09Q31.33 19.54 30.61 19.21Q31.16 18.9 31.46 18.43Q31.47 18.43 31.47 18.42Q31.51 18.35 31.55 18.28Q31.77 17.85 31.77 17.3Q31.77 16.78 31.57 16.35Q31.48 16.14 31.34 15.96Q31.33 15.94 31.31 15.93Q30.89 15.38 30.14 15.08Q29.38 14.77 28.36 14.77Q27.36 14.77 26.6 15.08Q25.85 15.38 25.43 15.93Q25.42 15.95 25.41 15.96Q25.28 16.14 25.19 16.33Q24.98 16.77 24.98 17.3Q24.98 17.85 25.2 18.29Q25.24 18.36 25.28 18.42Q25.32 18.5 25.38 18.57Q25.66 18.96 26.12 19.21Q25.42 19.53 25.05 20.07Q25.04 20.08 25.03 20.09Q24.96 20.2 24.9 20.32Q24.66 20.79 24.66 21.38Q24.66 21.96 24.88 22.43Q24.97 22.65 25.11 22.84Q25.12 22.86 25.14 22.87Q25.59 23.47 26.41 23.8Q27.25 24.13 28.36 24.13Q29.48 24.13 30.32 23.8Q31.17 23.46 31.63 22.85Q31.63 22.84 31.63 22.84Q31.79 22.63 31.89 22.4Q32.1 21.94 32.1 21.38Q32.1 20.81 31.87 20.35Q31.8 20.22 31.71 20.09ZM11.67 24L12.57 21.89L17.12 21.89L18.03 24L19.8 24L15.69 14.9L14.03 14.9L9.93 24L11.67 24ZM22.9 24L22.9 14.9L19.29 14.9L19.29 16.31L21.21 16.31L21.21 24L22.9 24ZM27.11 16.43Q27.57 16.09 28.36 16.09Q29.16 16.09 29.63 16.43Q29.84 16.58 29.96 16.79Q30.11 17.04 30.11 17.38Q30.11 17.67 29.99 17.9Q29.87 18.14 29.64 18.31Q29.17 18.65 28.36 18.65Q27.57 18.65 27.11 18.31Q26.89 18.14 26.77 17.92Q26.65 17.68 26.65 17.38Q26.65 17.02 26.8 16.76Q26.92 16.57 27.11 16.43ZM14.84 16.58L16.56 20.56L13.14 20.56L14.84 16.58ZM29.85 22.41Q29.3 22.8 28.36 22.8Q27.43 22.8 26.89 22.41Q26.65 22.23 26.52 22Q26.36 21.71 26.36 21.33Q26.36 20.97 26.51 20.69Q26.64 20.45 26.89 20.27Q27.43 19.88 28.36 19.88Q29.3 19.88 29.85 20.27Q30.11 20.45 30.25 20.71Q30.39 20.98 30.39 21.33Q30.39 21.69 30.24 21.98Q30.1 22.23 29.85 22.41Z" fill="#000000" fill-opacity="1.000000" fill-rule="evenodd"/>
	</g>
	<rect id="Frame 11" rx="5.500000" width="33.000000" height="33.000000" transform="translate(4.500000 3.500000)" stroke="#000000" stroke-opacity="1.000000" stroke-width="3.000000"/>
	<line id="Line 1" x1="39.000000" y1="22.000000" x2="42.000000" y2="22.000000" stroke="#000000" stroke-opacity="1.000000" stroke-width="2.000000"/>
	<line id="Line 1" x1="39.000000" y1="26.000000" x2="42.000000" y2="26.000000" stroke="#000000" stroke-opacity="1.000000" stroke-width="2.000000"/>
	<line id="Line 1" x1="39.000000" y1="30.000000" x2="42.000000" y2="30.000000" stroke="#000000" stroke-opacity="1.000000" stroke-width="2.000000"/>
	<line id="Line 1" x1="39.000000" y1="18.000000" x2="42.000000" y2="18.000000" stroke="#000000" stroke-opacity="1.000000" stroke-width="2.000000"/>
	<line id="Line 1" x1="39.000000" y1="14.000000" x2="42.000000" y2="14.000000" stroke="#000000" stroke-opacity="1.000000" stroke-width="2.000000"/>
	<line id="Line 1" x1="39.000000" y1="10.000000" x2="42.000000" y2="10.000000" stroke="#000000" stroke-opacity="1.000000" stroke-width="2.000000"/>
	<line id="Line 1" x1="0.000000" y1="22.000000" x2="3.000000" y2="22.000000" stroke="#000000" stroke-opacity="1.000000" stroke-width="2.000000"/>
	<line id="Line 1" x1="0.000000" y1="26.000000" x2="3.000000" y2="26.000000" stroke="#000000" stroke-opacity="1.000000" stroke-width="2.000000"/>
	<line id="Line 1" x1="0.000000" y1="30.000000" x2="3.000000" y2="30.000000" stroke="#000000" stroke-opacity="1.000000" stroke-width="2.000000"/>
	<line id="Line 1" x1="0.000000" y1="18.000000" x2="3.000000" y2="18.000000" stroke="#000000" stroke-opacity="1.000000" stroke-width="2.000000"/>
	<line id="Line 1" x1="0.000000" y1="14.000000" x2="3.000000" y2="14.000000" stroke="#000000" stroke-opacity="1.000000" stroke-width="2.000000"/>
	<line id="Line 1" x1="0.000000" y1="10.000000" x2="3.000000" y2="10.000000" stroke="#000000" stroke-opacity="1.000000" stroke-width="2.000000"/>
</svg>
