<svg width="14.998047" height="15.000000" viewBox="0 0 14.998 15" fill="none" xmlns="http://www.w3.org/2000/svg" xmlns:xlink="http://www.w3.org/1999/xlink">
	<desc>
			Created with Pixso.
	</desc>
	<defs/>
	<path id="path" d="M14.4 0.58C14.02 0.2 13.52 0 12.98 0C12.44 0 11.94 0.2 11.56 0.58L8.28 3.86L7.95 3.52C7.8 3.38 7.63 3.29 7.45 3.26C7.42 3.25 7.39 3.25 7.36 3.25C7.33 3.24 7.3 3.24 7.27 3.24C7.24 3.24 7.2 3.24 7.17 3.25C7.14 3.25 7.11 3.25 7.08 3.26C6.9 3.29 6.73 3.38 6.59 3.52C6.52 3.59 6.46 3.67 6.42 3.76C6.4 3.78 6.39 3.81 6.38 3.84C6.34 3.93 6.32 4.02 6.31 4.11C6.31 4.14 6.31 4.17 6.31 4.2C6.31 4.26 6.31 4.33 6.32 4.39C6.34 4.48 6.37 4.57 6.42 4.65C6.46 4.73 6.52 4.81 6.59 4.88L6.81 5.1L1.08 10.83C1.01 10.9 0.95 10.98 0.91 11.08L0.09 13.13C-0.08 13.55 -0.03 14.02 0.23 14.39C0.48 14.77 0.9 15 1.35 15C1.53 15 1.7 14.96 1.86 14.9L3.91 14.08C4 14.04 4.09 13.98 4.16 13.91L9.89 8.18L10.11 8.4C10.13 8.42 10.16 8.45 10.18 8.47C10.23 8.51 10.28 8.54 10.34 8.57C10.48 8.65 10.63 8.68 10.79 8.68C10.88 8.68 10.97 8.67 11.06 8.64C11.18 8.61 11.29 8.55 11.39 8.47C11.42 8.45 11.44 8.42 11.47 8.4C11.58 8.28 11.66 8.14 11.71 8C11.74 7.88 11.75 7.75 11.74 7.63C11.74 7.57 11.73 7.51 11.71 7.45C11.69 7.39 11.67 7.33 11.64 7.28C11.59 7.19 11.54 7.11 11.47 7.04L11.13 6.71L14.41 3.43C15.19 2.65 15.19 1.37 14.4 0.58ZM3.2 12.72L1.64 13.35L2.27 11.79L7.88 6.17L8.81 7.11L3.2 12.72Z" fill="#000000" fill-opacity="1.000000" fill-rule="nonzero"/>
</svg>
